<mxfile host="app.diagrams.net" modified="2023-05-25T07:08:17.851Z" agent="Mozilla/5.0 (Windows NT 10.0; Win64; x64) AppleWebKit/537.36 (KHTML, like Gecko) Chrome/113.0.0.0 Safari/537.36 Edg/113.0.1774.50" version="21.3.3" etag="yhE5pigx1rcC8sQkB6UV" type="github">
  <diagram name="페이지-1" id="aRWuPLPbD0P6hnuitFRy">
    <mxGraphModel>
      <root>
        <mxCell id="0" />
        <mxCell id="1" parent="0" />
      </root>
    </mxGraphModel>
  </diagram>
</mxfile>
